<?xml version="1.0" encoding="utf-8"?>
<!-- Generator: Adobe Illustrator 24.0.1, SVG Export Plug-In . SVG Version: 6.00 Build 0)  -->
<svg version="1.1" id="Layer_1" xmlns="http://www.w3.org/2000/svg" xmlns:xlink="http://www.w3.org/1999/xlink" x="0px" y="0px"
	 viewBox="0 0 845.2 563" style="enable-background:new 0 0 845.2 563;" xml:space="preserve">
<style type="text/css">
	.st0{fill:#FFFFFF;}
	.st1{fill:#F40009;}
</style>
<g>
	<g>
		<g>
			<path class="st0" d="M267.9,199.7c7-17.2,16.7-32.3,29.2-45.3c12.4-13.1,27.2-23.3,44.2-30.9c17.1-7.5,35.5-11.3,55.3-11.3
				c19.8,0,38.2,3.8,55.3,11.3c17.1,7.5,31.8,17.8,44.2,30.9c12.4,13,22.1,28.2,29.2,45.3s10.6,35.4,10.6,54.8s-3.5,37.6-10.6,54.8
				s-16.7,32.2-29.2,45.2C483.7,367.2,469,377.5,452,385c-17.1,7.5-35.5,11.3-55.3,11.3c-19.8,0-38.3-3.8-55.3-11.3
				c-17.1-7.5-31.8-17.8-44.2-30.7c-12.4-12.9-22.1-28-29.2-45.2s-10.5-35.4-10.5-54.8S260.9,216.8,267.9,199.7z M301.6,295.2
				c5.1,12.9,12.3,24.3,21.4,34.2c9.2,9.9,20,17.7,32.6,23.5c12.5,5.8,26.2,8.7,41,8.7c14.8,0,28.5-2.9,41-8.7
				c12.5-5.8,23.4-13.6,32.6-23.5c9.2-9.9,16.3-21.3,21.4-34.2c5.1-12.9,7.7-26.5,7.7-40.8c0-14.3-2.6-27.9-7.7-40.8
				c-5.1-12.9-12.3-24.4-21.4-34.4c-9.2-10-20-18-32.6-23.9c-12.5-5.9-26.2-8.8-41-8.8c-14.8,0-28.5,2.9-41,8.8
				c-12.5,5.9-23.4,13.9-32.6,23.9c-9.2,10-16.3,21.5-21.4,34.4c-5.2,12.9-7.7,26.5-7.7,40.8C293.9,268.7,296.5,282.3,301.6,295.2z"
				/>
			<path class="st0" d="M607.4,115.9v243.5h138.5v33.1H571.7V115.9H607.4z"/>
		</g>
	</g>
	<g>
		<g>
			<path class="st1" d="M177.6,144.9c-24,24-46.6,36-67.9,36c-14.6,0-28.4-5.6-41.6-16.8c-13.2-11.2-19.8-23.9-19.8-38.1
				s7.1-29.9,21.3-47.2c9.1-5.9,19.5-13,31.3-21.3c7.1-5.1,14.4-7.7,21.8-7.7c7.1,0,14.2,2.2,21.3,6.5v18.3
				c-13,12.6-21.1,21.1-24.2,25.4c-2,2.8-3,6.1-3,10c0,2.8,0.6,5.9,1.8,9.4c10.6,1.2,26.6,2.6,47.8,4.1
				C175.8,134.7,179.5,141.8,177.6,144.9z M223.4,429.7c-14.2,18.5-23.8,27.9-28.9,28.3c-5.1,0.4-14.6-0.2-28.3-1.8
				c-16.9-24.8-26.4-61.4-28.3-109.8c-0.4-26.4-1.4-65.7-3-118.1c7.5,0,13.2-0.6,17.1-1.8c9.8,22,24.6,55.5,44.3,100.4
				C214.3,369.1,223.4,403.3,223.4,429.7z"/>
		</g>
	</g>
	<g>
		<path class="st0" d="M268.6,481.3c1.7-3.1,4-5.5,6.9-7.2c2.9-1.7,6.2-2.6,9.7-2.6c3.5,0,6.6,0.8,9.2,2.3c2.6,1.5,4.5,3.4,5.8,5.7
			v-7.3h6.8v40.3h-6.8V505c-1.3,2.4-3.3,4.3-5.9,5.8c-2.6,1.6-5.7,2.3-9.2,2.3c-3.6,0-6.8-0.9-9.7-2.7c-2.9-1.8-5.2-4.2-6.8-7.4
			c-1.7-3.2-2.5-6.8-2.5-10.9C266.1,488,267,484.4,268.6,481.3z M298.4,484.3c-1.2-2.3-2.9-4-5-5.2c-2.1-1.2-4.4-1.8-6.9-1.8
			c-2.5,0-4.8,0.6-6.8,1.8c-2,1.2-3.7,2.9-4.9,5.2c-1.2,2.3-1.8,4.9-1.8,7.9c0,3.1,0.6,5.8,1.8,8s2.9,4,4.9,5.2
			c2.1,1.2,4.3,1.8,6.8,1.8c2.5,0,4.8-0.6,6.9-1.8c2.1-1.2,3.7-2.9,5-5.2c1.2-2.3,1.8-4.9,1.8-8
			C300.2,489.2,299.6,486.6,298.4,484.3z"/>
		<path class="st0" d="M348,473.4c2.5,1.3,4.4,3.2,5.8,5.8s2.1,5.8,2.1,9.5v23.7h-6.6v-22.8c0-4-1-7.1-3-9.2c-2-2.1-4.7-3.2-8.2-3.2
			c-3.5,0-6.3,1.1-8.4,3.3c-2.1,2.2-3.1,5.4-3.1,9.6v22.3h-6.7v-54.4h6.7v19.8c1.3-2,3.1-3.7,5.5-4.8c2.3-1.1,5-1.7,7.8-1.7
			C342.8,471.5,345.5,472.1,348,473.4z"/>
		<path class="st0" d="M404.8,494.8h-32.2c0.3,4,1.6,7.1,4.1,9.3c2.5,2.2,5.5,3.3,9,3.3c2.9,0,5.3-0.7,7.2-2s3.3-3.1,4.1-5.4h7.2
			c-1.1,3.9-3.2,7-6.5,9.4c-3.2,2.4-7.3,3.7-12.1,3.7c-3.8,0-7.2-0.9-10.2-2.6c-3-1.7-5.4-4.1-7.1-7.3c-1.7-3.2-2.6-6.8-2.6-11
			c0-4.2,0.8-7.8,2.5-11c1.7-3.1,4-5.5,7-7.2c3-1.7,6.5-2.5,10.4-2.5c3.8,0,7.2,0.9,10.1,2.5c2.9,1.7,5.2,3.9,6.8,6.9
			c1.6,2.9,2.4,6.2,2.4,9.9C405,492,404.9,493.4,404.8,494.8z M396.4,482.8c-1.1-1.8-2.7-3.2-4.6-4.2c-1.9-1-4.1-1.4-6.4-1.4
			c-3.4,0-6.3,1.1-8.6,3.2c-2.4,2.2-3.8,5.2-4.1,9h25.4C398.1,486.8,397.5,484.6,396.4,482.8z"/>
		<path class="st0" d="M415.3,481.3c1.7-3.1,4-5.5,6.9-7.2c2.9-1.7,6.2-2.6,9.7-2.6c3.5,0,6.6,0.8,9.2,2.3c2.6,1.5,4.5,3.4,5.8,5.7
			v-7.3h6.8v40.3h-6.8V505c-1.3,2.4-3.3,4.3-5.9,5.8c-2.6,1.6-5.7,2.3-9.2,2.3c-3.6,0-6.8-0.9-9.7-2.7c-2.9-1.8-5.2-4.2-6.8-7.4
			c-1.7-3.2-2.5-6.8-2.5-10.9C412.8,488,413.6,484.4,415.3,481.3z M445.1,484.3c-1.2-2.3-2.9-4-5-5.2c-2.1-1.2-4.4-1.8-6.9-1.8
			c-2.5,0-4.8,0.6-6.8,1.8c-2,1.2-3.7,2.9-4.9,5.2c-1.2,2.3-1.8,4.9-1.8,7.9c0,3.1,0.6,5.8,1.8,8s2.9,4,4.9,5.2
			c2.1,1.2,4.3,1.8,6.8,1.8c2.5,0,4.8-0.6,6.9-1.8c2.1-1.2,3.7-2.9,5-5.2c1.2-2.3,1.8-4.9,1.8-8
			C446.9,489.2,446.3,486.6,445.1,484.3z"/>
		<path class="st0" d="M466.4,481.3c1.7-3.1,4-5.5,6.9-7.2c2.9-1.7,6.2-2.6,9.8-2.6c3.1,0,6,0.7,8.7,2.2s4.7,3.3,6.2,5.7v-21.3h6.8
			v54.4H498v-7.6c-1.3,2.4-3.3,4.4-5.9,5.9c-2.6,1.6-5.6,2.3-9.1,2.3c-3.6,0-6.8-0.9-9.7-2.7c-2.9-1.8-5.2-4.2-6.9-7.4
			c-1.7-3.2-2.5-6.8-2.5-10.9C463.9,488,464.8,484.4,466.4,481.3z M496.2,484.3c-1.2-2.3-2.9-4-5-5.2c-2.1-1.2-4.4-1.8-6.9-1.8
			c-2.5,0-4.8,0.6-6.8,1.8c-2,1.2-3.7,2.9-4.9,5.2c-1.2,2.3-1.8,4.9-1.8,7.9c0,3.1,0.6,5.8,1.8,8c1.2,2.3,2.9,4,4.9,5.2
			c2.1,1.2,4.3,1.8,6.8,1.8c2.5,0,4.8-0.6,6.9-1.8c2.1-1.2,3.7-2.9,5-5.2s1.8-4.9,1.8-8C498,489.2,497.4,486.6,496.2,484.3z"/>
		<path class="st0" d="M546,510.5c-3.1-1.7-5.4-4.1-7.2-7.3c-1.7-3.2-2.6-6.8-2.6-11c0-4.1,0.9-7.8,2.7-10.9
			c1.8-3.2,4.2-5.6,7.3-7.3s6.6-2.5,10.4-2.5c3.8,0,7.3,0.9,10.3,2.5c3.1,1.7,5.5,4.1,7.3,7.2c1.8,3.1,2.7,6.8,2.7,11
			c0,4.1-0.9,7.8-2.7,11c-1.8,3.2-4.3,5.6-7.5,7.3c-3.1,1.7-6.6,2.6-10.4,2.6C552.5,513.1,549,512.2,546,510.5z M563,505.5
			c2.1-1.1,3.8-2.8,5.1-5.1s1.9-5,1.9-8.2c0-3.2-0.6-6-1.9-8.2c-1.3-2.3-3-3.9-5-5c-2-1.1-4.3-1.7-6.7-1.7c-2.4,0-4.7,0.6-6.7,1.7
			c-2,1.1-3.7,2.8-4.9,5c-1.2,2.3-1.8,5-1.8,8.2c0,3.3,0.6,6,1.8,8.3c1.2,2.3,2.8,3.9,4.8,5c2,1.1,4.2,1.7,6.6,1.7
			C558.6,507.2,560.9,506.7,563,505.5z"/>
		<path class="st0" d="M603.5,477.7h-8.5v34.7h-6.7v-34.7h-5.2v-5.5h5.2v-2.9c0-4.5,1.2-7.8,3.5-9.9c2.3-2.1,6.1-3.1,11.2-3.1v5.6
			c-2.9,0-5,0.6-6.2,1.7c-1.2,1.1-1.8,3-1.8,5.7v2.9h8.5V477.7z"/>
		<path class="st0" d="M642.1,477.7v23.7c0,1.9,0.4,3.3,1.2,4.1c0.8,0.8,2.3,1.2,4.3,1.2h4.9v5.7h-6c-3.7,0-6.5-0.9-8.4-2.6
			c-1.9-1.7-2.8-4.5-2.8-8.5v-23.7h-5.2v-5.5h5.2V462h6.7v10.1h10.5v5.5H642.1z"/>
		<path class="st0" d="M662.3,464.3c-0.9-0.9-1.3-2-1.3-3.2c0-1.3,0.4-2.4,1.3-3.2c0.9-0.9,1.9-1.3,3.2-1.3c1.2,0,2.3,0.4,3.1,1.3
			c0.9,0.9,1.3,2,1.3,3.2c0,1.3-0.4,2.4-1.3,3.2c-0.9,0.9-1.9,1.3-3.1,1.3C664.3,465.6,663.2,465.2,662.3,464.3z M668.8,472.2v40.3
			h-6.7v-40.3H668.8z"/>
		<path class="st0" d="M738.4,473.4c2.4,1.3,4.4,3.2,5.8,5.8s2.1,5.8,2.1,9.5v23.7h-6.6v-22.8c0-4-1-7.1-3-9.2c-2-2.1-4.7-3.2-8-3.2
			c-3.5,0-6.2,1.1-8.3,3.3c-2.1,2.2-3.1,5.5-3.1,9.7v22.2h-6.6v-22.8c0-4-1-7.1-3-9.2c-2-2.1-4.7-3.2-8.1-3.2
			c-3.5,0-6.2,1.1-8.3,3.3c-2,2.2-3.1,5.5-3.1,9.7v22.2h-6.7v-40.3h6.7v5.8c1.3-2.1,3.1-3.7,5.3-4.8c2.2-1.1,4.7-1.7,7.4-1.7
			c3.4,0,6.4,0.8,9,2.3c2.6,1.5,4.5,3.8,5.8,6.7c1.1-2.8,3-5,5.6-6.6c2.6-1.6,5.5-2.3,8.7-2.3C733.2,471.5,736,472.1,738.4,473.4z"
			/>
		<path class="st0" d="M795.3,494.8h-32.2c0.3,4,1.6,7.1,4.1,9.3c2.5,2.2,5.5,3.3,9,3.3c2.9,0,5.3-0.7,7.2-2s3.3-3.1,4.1-5.4h7.2
			c-1.1,3.9-3.2,7-6.5,9.4c-3.2,2.4-7.3,3.7-12.1,3.7c-3.8,0-7.2-0.9-10.2-2.6c-3-1.7-5.4-4.1-7.1-7.3c-1.7-3.2-2.6-6.8-2.6-11
			c0-4.2,0.8-7.8,2.5-11s4-5.5,7-7.2s6.5-2.5,10.4-2.5c3.8,0,7.2,0.9,10.1,2.5c2.9,1.7,5.2,3.9,6.8,6.9c1.6,2.9,2.4,6.2,2.4,9.9
			C795.5,492,795.4,493.4,795.3,494.8z M786.9,482.8c-1.1-1.8-2.7-3.2-4.6-4.2c-1.9-1-4.1-1.4-6.4-1.4c-3.4,0-6.3,1.1-8.6,3.2
			c-2.4,2.2-3.8,5.2-4.1,9h25.4C788.6,486.8,788,484.6,786.9,482.8z"/>
	</g>
	<g>
		<path class="st0" d="M774.8,372.1v2h-5.5v14.5h-2.1v-14.5h-5.5v-2H774.8z"/>
		<path class="st0" d="M791.5,388.6v-12.3l-6.4,10h-0.5l-6.4-10v12.3h-2.1v-16.5h1.9l6.9,10.8l6.9-10.8h1.9v16.5H791.5z"/>
	</g>
</g>
</svg>
